<svg xmlns="http://www.w3.org/2000/svg" xmlns:xlink="http://www.w3.org/1999/xlink" width="1600" height="1600" x="0" y="0" enable-background="new 0 0 1600 1600" version="1.1" viewBox="0 0 1600 1600" xml:space="preserve"><g id="Layer_2"><circle cx="1278.896" cy="1051.204" r="2.187" fill="#FFF"/><circle cx="1550.682" cy="1469.82" r="1.821" fill="#FFF"/><circle cx="1363.909" cy="869.167" r="1.44" fill="#FFF"/><circle cx="71.438" cy="1296.866" r="2.104" fill="#FFF"/><circle cx="951.299" cy="715.207" r="1.717" fill="#FFF"/><circle cx="647.481" cy="1488.131" r="2.319" fill="#FFF"/><circle cx="1408.637" cy="631.123" r="1.637" fill="#FFF"/><circle cx="530.29" cy="734.3" r="1.977" fill="#FFF"/><circle cx="1181.677" cy="1390.863" r="1.376" fill="#FFF"/><circle cx="1515.183" cy="1176.794" r="1.461" fill="#FFF"/><circle cx="221.198" cy="1425.385" r="2.028" fill="#FFF"/><circle cx="34.962" cy="785.522" r="2.297" fill="#FFF"/><circle cx="295.517" cy="571.307" r="2.02" fill="#FFF"/><circle cx="884.597" cy="1035.578" r="2.121" fill="#FFF"/><circle cx="304.501" cy="172.613" r="1.594" fill="#FFF"/><circle cx="211.725" cy="526.579" r="1.392" fill="#FFF"/><circle cx="322.227" cy="689.572" r="2.263" fill="#FFF"/><circle cx="284.481" cy="1024.445" r="1.476" fill="#FFF"/><circle cx="178.57" cy="1563.182" r="2.309" fill="#FFF"/><circle cx="590.545" cy="314.365" r="2.093" fill="#FFF"/><circle cx="1349.26" cy="257.967" r="1.648" fill="#FFF"/><circle cx="46.388" cy="1238.124" r="2.092" fill="#FFF"/><circle cx="958.916" cy="1550.682" r="2.12" fill="#FFF"/><circle cx="890.408" cy="147.172" r="1.442" fill="#FFF"/><circle cx="411.194" cy="854.762" r="2.224" fill="#FFF"/><circle cx="407.19" cy="140.385" r="2.364" fill="#FFF"/><circle cx="1543.406" cy="1268.935" r="2.269" fill="#FFF"/><circle cx="1375.872" cy="659.883" r="1.385" fill="#FFF"/><circle cx="463.1" cy="1307.559" r="1.477" fill="#FFF"/><circle cx="1057.796" cy="1107.944" r="1.284" fill="#FFF"/><circle cx="359.239" cy="1519.578" r="1.562" fill="#FFF"/><circle cx="235.896" cy="1103.403" r="1.355" fill="#FFF"/><circle cx="587.86" cy="823.365" r="1.406" fill="#FFF"/><circle cx="889.334" cy="432.63" r="1.866" fill="#FFF"/><circle cx="18.897" cy="782.104" r="2.078" fill="#FFF"/><circle cx="534.587" cy="658.419" r="1.752" fill="#FFF"/><circle cx="188.433" cy="16.114" r="1.683" fill="#FFF"/><circle cx="485.757" cy="1134.507" r="1.944" fill="#FFF"/><circle cx="835.67" cy="1295.938" r="1.447" fill="#FFF"/><circle cx="83.352" cy="634.053" r="1.733" fill="#FFF"/><circle cx="1113.999" cy="780.444" r="1.691" fill="#FFF"/><circle cx="1113.51" cy="133.012" r="1.677" fill="#FFF"/><circle cx="348.155" cy="1363.762" r="2.418" fill="#FFF"/><circle cx="785.424" cy="1100.034" r="1.575" fill="#FFF"/><circle cx="470.864" cy="362.56" r="1.881" fill="#FFF"/><circle cx="1157.994" cy="1128.257" r="1.466" fill="#FFF"/><circle cx="804.907" cy="827.418" r="2.358" fill="#FFF"/><circle cx="1201.99" cy="703.879" r="1.771" fill="#FFF"/><circle cx="1267.568" cy="1378.167" r="1.747" fill="#FFF"/><circle cx="1357.219" cy="741.282" r="2.132" fill="#FFF"/><circle cx="157.476" cy="1065.267" r="2.152" fill="#FFF"/><circle cx="890.408" cy="1222.303" r="1.616" fill="#FFF"/><circle cx="44.142" cy="1126.988" r="2.346" fill="#FFF"/><circle cx="581.707" cy="264.022" r="2.302" fill="#FFF"/><circle cx="513.834" cy="861.55" r="2.145" fill="#FFF"/><circle cx="1063.997" cy="1596.777" r="1.951" fill="#FFF"/><circle cx="1036.457" cy="1154.381" r="1.927" fill="#FFF"/><circle cx="1512.009" cy="168.56" r="2.353" fill="#FFF"/><circle cx=".342" cy="1497.409" r="2.09" fill="#FFF"/><circle cx="1324.015" cy="603.925" r="2.321" fill="#FFF"/><circle cx="23.829" cy="409.583" r="1.334" fill="#FFF"/><circle cx="1562.352" cy="925.37" r="2.355" fill="#FFF"/><circle cx="383.557" cy="14.258" r="1.496" fill="#FFF"/><circle cx="1013.263" cy="909.745" r="2.202" fill="#FFF"/><circle cx="212.311" cy="151.323" r="1.509" fill="#FFF"/><circle cx="1201.892" cy="881.472" r="2.123" fill="#FFF"/><circle cx="1201.257" cy="1598.73" r="2.348" fill="#FFF"/><circle cx="141.704" cy="58.596" r="1.583" fill="#FFF"/><circle cx="101.126" cy="1549.608" r="2.246" fill="#FFF"/><circle cx="222.224" cy="347.716" r="2.075" fill="#FFF"/><circle cx="1552.831" cy="1239.1" r="1.834" fill="#FFF"/><circle cx="433.998" cy="1146.617" r="1.774" fill="#FFF"/><circle cx="1284.365" cy="134.77" r="2.033" fill="#FFF"/><circle cx="1302.384" cy="1045.491" r="1.725" fill="#FFF"/><circle cx="1099.155" cy="804.468" r="2.05" fill="#FFF"/><circle cx="1448.823" cy="1528.904" r="1.737" fill="#FFF"/><circle cx="136.479" cy="1243.739" r="1.882" fill="#FFF"/><circle cx="1019.709" cy="462.612" r="2.042" fill="#FFF"/><circle cx="621.845" cy="495.23" r="1.821" fill="#FFF"/><circle cx="319.785" cy="311.826" r="2.086" fill="#FFF"/><circle cx="132.768" cy="1412.25" r="1.726" fill="#FFF"/><circle cx="458.998" cy="668.917" r="2.245" fill="#FFF"/><circle cx="91.556" cy="415.394" r="1.37" fill="#FFF"/><circle cx="1269.13" cy="579.51" r="2.009" fill="#FFF"/><circle cx="753.49" cy="1465.035" r="2.294" fill="#FFF"/><circle cx="1167.37" cy="741.038" r="2.25" fill="#FFF"/><circle cx="996.222" cy="816.968" r="2.449" fill="#FFF"/><circle cx="242" cy="704.221" r="1.293" fill="#FFF"/><circle cx="1322.941" cy="1052.034" r="2.279" fill="#FFF"/><circle cx="1006.281" cy="346.495" r="1.354" fill="#FFF"/><circle cx="1278.066" cy="1566.356" r="2.179" fill="#FFF"/><circle cx="413.831" cy="291.659" r="1.444" fill="#FFF"/><circle cx="1332.56" cy="381.799" r="2.48" fill="#FFF"/><circle cx="451.039" cy="1237.489" r="1.871" fill="#FFF"/><circle cx="830.543" cy="582.049" r="1.975" fill="#FFF"/><circle cx="1518.748" cy="710.617" r="1.821" fill="#FFF"/><circle cx="398.743" cy="501.968" r="1.711" fill="#FFF"/><circle cx="286.239" cy="603.436" r="2.049" fill="#FFF"/><circle cx="1104.184" cy="1395.16" r="2.273" fill="#FFF"/><circle cx="1150.133" cy="156.401" r="2.3" fill="#FFF"/><circle cx="204.645" cy="676.144" r="2.421" fill="#FFF"/><circle cx="1248.769" cy="1433.686" r="1.985" fill="#FFF"/><circle cx="772.143" cy="780.541" r="1.956" fill="#FFF"/><circle cx="583.416" cy="1599.707" r="2.115" fill="#FFF"/><circle cx="376.72" cy="208.112" r="2.076" fill="#FFF"/><circle cx="967.315" cy="238.777" r="1.87" fill="#FFF"/><circle cx="1405.023" cy="211.237" r="1.95" fill="#FFF"/><circle cx="470.034" cy="1568.505" r="1.407" fill="#FFF"/><circle cx="245.174" cy="62.697" r="1.965" fill="#FFF"/><circle cx="349.034" cy="1282.07" r="1.277" fill="#FFF"/></g></svg>